<svg width="129" height="21" viewBox="0 0 129 21" fill="none" xmlns="http://www.w3.org/2000/svg">
<path d="M14.4397 0C14.4212 10.0684 8.42585 18.5858 0.689575 20.2703H22.1498V13.5601H29.8876V8.64624L22.1498 8.61829V5.04739H31.0298V0.0294987L14.4397 0ZM32.5044 0V12.0433C32.5044 15.2198 33.0785 16.9664 34.313 18.3327C36.234 20.4504 39.7404 21 44.0272 21C48.314 21 51.8497 20.4504 53.7691 18.3327C55.0005 16.9664 55.5777 15.2276 55.5777 12.0433V0H47.646V11.0325C47.646 14.8782 46.53 16.0861 44.1057 16.0861C41.6814 16.0861 40.5993 14.8782 40.5993 11.0325V0H32.5044ZM58.0005 0V20.2703H74.8399V14.9636H66.2955V0H58.0005ZM76.4269 0V20.2703H88.0898C94.0051 20.2703 96.1062 19.5452 98.3612 17.6309C100.033 16.2228 100.978 13.3164 100.978 10.3339C100.978 7.29085 100.019 4.83469 98.6398 3.34733C96.0138 0.529425 92.3489 0.00621026 86.6983 0.00621026H76.4269V0ZM109.105 0L99.3079 20.3541H107.49L108.876 17.322H118.535L119.843 20.3541H129L119.21 0H109.105ZM84.6942 4.88437H86.8091C90.2909 4.88437 92.3766 6.54717 92.3766 10.1631C92.3766 13.779 90.2909 15.4418 86.8091 15.4418H84.6942V4.88437ZM113.809 5.92925L116.564 12.6674H110.831L113.809 5.92925Z" fill="#ED1C24"/>
</svg>
