<svg width="20" height="21" viewBox="0 0 20 21" fill="none" xmlns="http://www.w3.org/2000/svg">
<path d="M10.0117 0.506042C4.50572 0.506042 0.0234844 5.03837 0.0214844 10.6107C0.0204844 12.3919 0.481469 14.1308 1.35547 15.663L0 20.747L5.23242 19.4958C6.69142 20.3014 8.33386 20.7243 10.0059 20.7253H10.0098C15.5148 20.7253 19.995 16.1919 19.998 10.6206C20 7.91944 18.9622 5.3798 17.0762 3.46905C15.1902 1.55932 12.6837 0.507055 10.0117 0.506042ZM10.0098 2.53014C12.1458 2.53115 14.1531 3.37398 15.6621 4.90015C17.1711 6.42834 18 8.45891 17.998 10.6186C17.996 15.0757 14.4138 18.7012 10.0078 18.7012C8.67481 18.7002 7.35441 18.3614 6.19141 17.7188L5.51758 17.3472L4.77344 17.5251L2.80469 17.9955L3.28516 16.1888L3.50195 15.3784L3.08789 14.651C2.38989 13.4284 2.02048 12.0306 2.02148 10.6107C2.02348 6.15568 5.60677 2.53014 10.0098 2.53014ZM6.47656 5.9458C6.30956 5.9458 6.03955 6.00906 5.81055 6.26207C5.58155 6.51407 4.93555 7.12441 4.93555 8.36721C4.93555 9.61 5.83008 10.8113 5.95508 10.9803C6.07908 11.1483 7.68175 13.7793 10.2188 14.7913C12.3267 15.6324 12.7549 15.4664 13.2129 15.4239C13.6709 15.3824 14.6904 14.8141 14.8984 14.224C15.1064 13.634 15.1069 13.1265 15.0449 13.0222C14.9829 12.917 14.8164 12.8542 14.5664 12.7277C14.3174 12.6012 13.0903 11.9914 12.8613 11.9074C12.6323 11.8234 12.4648 11.7809 12.2988 12.0339C12.1328 12.2869 11.6558 12.8542 11.5098 13.0222C11.3638 13.1912 11.2188 13.214 10.9688 13.0875C10.7188 12.9599 9.91494 12.6925 8.96094 11.8323C8.21894 11.1633 7.71827 10.3379 7.57227 10.0849C7.42727 9.83292 7.55859 9.69451 7.68359 9.56901C7.79559 9.45567 7.93164 9.274 8.05664 9.12624C8.18064 8.97848 8.22364 8.87321 8.30664 8.70521C8.38964 8.53722 8.34716 8.38895 8.28516 8.26244C8.22316 8.13594 7.73763 6.88853 7.51562 6.38857C7.32863 5.96857 7.13112 5.95882 6.95312 5.95173C6.80813 5.94566 6.64256 5.9458 6.47656 5.9458Z" fill="#6ABF5F"/>
</svg>
