<svg width="20" height="22" viewBox="0 0 20 22" fill="none" xmlns="http://www.w3.org/2000/svg">
<path d="M9.39453 0.99891C7.71556 1.00981 4.31091 1.17721 2.1084 3.15907C2.0977 3.16853 2.08728 3.1783 2.07715 3.18836C0.63765 4.64147 0 6.72448 0 9.49989V10.9989C0 13.7743 0.641741 15.8616 2.10938 17.3417C2.1195 17.3521 2.12992 17.3622 2.14062 17.372C2.77111 17.9384 3.58685 18.3553 4.5 18.6884V20.4813C4.5 21.1007 4.88598 21.6606 5.46387 21.8817C5.63816 21.9485 5.82111 21.9813 6 21.9813C6.41862 21.9813 6.82705 21.8051 7.11621 21.4833C7.12544 21.4733 8.26645 20.2393 8.95703 19.4774C9.35881 19.4899 9.7707 19.4999 9.99902 19.4999C11.286 19.4999 15.374 19.6056 17.8916 17.3407C17.9023 17.3309 17.9127 17.3208 17.9229 17.3104C19.3624 15.8573 20 13.7743 20 10.9989L19.999 9.49989C19.999 6.724 19.3581 4.63682 17.8906 3.15809C17.8805 3.14803 17.8701 3.13826 17.8594 3.12879C15.3688 0.889668 11.287 0.99891 10 0.99891C9.83912 0.99891 9.63438 0.997353 9.39453 0.99891ZM10 2.49891C11.284 2.49891 15.0176 2.6113 16.8408 4.23524C17.962 5.37616 18.499 6.95945 18.499 9.49989L18.5 10.9999C18.4998 13.5388 17.9593 15.1263 16.873 16.2343C15.0133 17.8924 11.2831 17.9999 9.99902 17.9999C9.69152 17.9999 9.22986 18 8.67188 17.9716C8.55998 17.9658 8.44822 17.9852 8.34479 18.0283C8.24137 18.0714 8.14891 18.1371 8.07422 18.2206C7.48299 18.8821 6.00879 20.4706 6.00879 20.4706C6.00583 20.4738 6.0029 20.4771 6 20.4804V18.1845C6.00003 18.023 5.94797 17.8659 5.85155 17.7364C5.75514 17.6069 5.61952 17.512 5.46484 17.4657C4.47543 17.1693 3.71088 16.7567 3.16016 16.2665C2.03753 15.1238 1.5 13.5396 1.5 10.9989V9.49989C1.5 6.96103 2.04018 5.37358 3.12598 4.26551C4.98502 2.607 8.71583 2.49891 10 2.49891ZM10 4.49989C9.724 4.49989 9.5 4.72389 9.5 4.99989C9.5 5.27589 9.724 5.49989 10 5.49989C12.481 5.49989 14.5 7.51889 14.5 9.99989V10.4999C14.5 10.7759 14.724 10.9999 15 10.9999C15.276 10.9999 15.5 10.7759 15.5 10.4999V9.99989C15.5 6.96739 13.0325 4.49989 10 4.49989ZM6.04492 4.99989C5.72542 4.99939 5.30646 5.15753 5.02246 5.36903C4.59546 5.68753 4.1488 6.12102 4.0293 6.66102C4.0133 6.73452 4.00398 6.8087 4.00098 6.8827C3.97798 7.4452 4.19802 8.01639 4.43652 8.49989C4.99802 9.63939 5.7413 10.7424 6.5498 11.7274C6.8083 12.0424 7.09034 12.3351 7.38184 12.6181C7.66484 12.9091 7.95746 13.1911 8.27246 13.4501C9.25746 14.2586 10.3605 15.0019 11.5 15.5634C11.979 15.7994 12.5426 16.0159 13.0996 15.9999C13.1791 15.9974 13.2594 15.9881 13.3389 15.9706C13.8789 15.8516 14.3124 15.4044 14.6309 14.9774C14.8424 14.6934 15.0005 14.275 15 13.955C14.9995 13.766 14.9136 13.5851 14.7256 13.4266C14.1701 12.9586 13.9135 12.8178 13.1465 12.3573C12.827 12.1658 12.3405 11.9999 12.085 11.9999C11.9105 11.9999 11.7012 12.1336 11.5732 12.2616C11.2452 12.5896 11.1375 12.9999 10.5625 12.9999C10 12.9999 9.0175 12.4274 8.3125 11.6874C7.5725 10.9824 7 9.99989 7 9.43739C7 8.86239 7.40345 8.74733 7.73145 8.41883C7.85945 8.29133 8 8.08259 8 7.90809C8 7.65259 7.83408 7.1729 7.64258 6.8534C7.18208 6.0859 7.04174 5.8293 6.57324 5.2743C6.41474 5.0863 6.23392 5.00039 6.04492 4.99989ZM10.2139 6.00868C9.94237 5.99368 9.70298 6.20533 9.68848 6.48133C9.67398 6.75683 9.88513 6.99222 10.1611 7.00672C11.7531 7.09072 13 8.40589 13 9.99989C13 10.2759 13.224 10.4999 13.5 10.4999C13.776 10.4999 14 10.2759 14 9.99989C14 7.87389 12.3374 6.12068 10.2139 6.00868ZM10.4268 7.57606C10.2337 7.60482 10.0674 7.74495 10.0156 7.9452C9.94662 8.2127 10.1075 8.48507 10.375 8.55457C10.8985 8.68957 11.3083 9.10036 11.4453 9.62586C11.5038 9.85086 11.7067 9.99989 11.9287 9.99989C11.9702 9.99989 12.0132 9.99428 12.0557 9.98328C12.3227 9.91329 12.4826 9.64043 12.4131 9.37293C12.1846 8.49693 11.5 7.8133 10.626 7.5868C10.5589 7.56968 10.4911 7.56647 10.4268 7.57606Z" fill="#7B519D"/>
</svg>
